<svg xmlns="http://www.w3.org/2000/svg" xmlns:xlink="http://www.w3.org/1999/xlink" viewBox="0 0 147.6 176.9"><defs><style>.cls-1{fill:#242138;}.cls-2{fill:url(#linear-gradient);}.cls-3{fill:url(#linear-gradient-2);}.cls-4{fill:url(#linear-gradient-3);}.cls-5{fill:url(#linear-gradient-4);}</style><linearGradient id="linear-gradient" x1="102.16" y1="134.68" x2="144.16" y2="172.68" gradientUnits="userSpaceOnUse"><stop offset="0" stop-color="#76f6f5"/><stop offset="1" stop-color="#b541fa"/></linearGradient><linearGradient id="linear-gradient-2" x1="112.81" y1="122.91" x2="154.81" y2="160.91" xlink:href="#linear-gradient"/><linearGradient id="linear-gradient-3" x1="31.8" y1="-17.06" x2="160.8" y2="79.69" xlink:href="#linear-gradient"/><linearGradient id="linear-gradient-4" x1="-3.31" y1="29.76" x2="125.69" y2="126.51" xlink:href="#linear-gradient"/></defs><g id="Layer_2" data-name="Layer 2"><g id="Layer_1-2" data-name="Layer 1"><path class="cls-1" d="M6.5,143.6A7.4,7.4,0,0,1,9,141.9a7.2,7.2,0,0,1,2.9-.6l2.1.3a8.7,8.7,0,0,1,1.9,1,7,7,0,0,1,1.9,1.6l2.4-2.5a13.4,13.4,0,0,0-2.1-2,9.7,9.7,0,0,0-2.9-1.4,9.1,9.1,0,0,0-3.3-.5,12.2,12.2,0,0,0-4.3.8A11.6,11.6,0,0,0,4,141.1a13.1,13.1,0,0,0-2.4,3.7,11.8,11.8,0,0,0-.9,4.6,14,14,0,0,0,.8,4.7,12.1,12.1,0,0,0,2.3,3.8,9.5,9.5,0,0,0,3.5,2.4,10.5,10.5,0,0,0,4.4.9,16.5,16.5,0,0,0,3.1-.4,11,11,0,0,0,2.9-1.2,5.8,5.8,0,0,0,2.1-1.6L18,155.2a10.9,10.9,0,0,1-1.7,1.3l-1.9.8a7.8,7.8,0,0,1-2.2.3A8.7,8.7,0,0,1,9,157a6.7,6.7,0,0,1-2.5-1.6,7.6,7.6,0,0,1-1.6-2.6,9.3,9.3,0,0,1-.6-3.4,8.8,8.8,0,0,1,.6-3.3A8.2,8.2,0,0,1,6.5,143.6Z"/><path class="cls-1" d="M36.3,146.3a4.7,4.7,0,0,0-1.3-1.5,5.9,5.9,0,0,0-1.9-1.1,6.9,6.9,0,0,0-2.5-.4,7,7,0,0,0-4,1.2,7.2,7.2,0,0,0-2.9,3.1,10.2,10.2,0,0,0,0,9.2,8.7,8.7,0,0,0,2.8,3.2,6.4,6.4,0,0,0,3.8,1.2,8.6,8.6,0,0,0,2.4-.4,8.4,8.4,0,0,0,2.1-1.1,5.4,5.4,0,0,0,1.5-1.5h0v2.6h3.4V143.7H36.3Zm-.5,8.9a5.5,5.5,0,0,1-1.9,2.1,5,5,0,0,1-5.4,0,6.3,6.3,0,0,1-1.8-2.1,7,7,0,0,1-.7-3,7.3,7.3,0,0,1,.7-3,7,7,0,0,1,1.8-2,5,5,0,0,1,5.4,0,6.1,6.1,0,0,1,1.9,2,7.3,7.3,0,0,1,.6,3A7,7,0,0,1,35.8,155.2Z"/><rect class="cls-1" x="44.5" y="136.6" width="3.4" height="24.2"/><rect class="cls-1" x="53.2" y="143.7" width="3.4" height="17.17"/><path class="cls-1" d="M54.8,135.6a2.1,2.1,0,0,0-2.2,2.2,1.9,1.9,0,0,0,.6,1.5,2.1,2.1,0,0,0,1.6.6,2.4,2.4,0,0,0,1.7-.6,2,2,0,0,0,.6-1.5,2.1,2.1,0,0,0-.6-1.6A2.4,2.4,0,0,0,54.8,135.6Z"/><path class="cls-1" d="M74.8,144.5a8.1,8.1,0,0,0-4.1-1.1,6.3,6.3,0,0,0-2.7.6,5.9,5.9,0,0,0-2.3,1.4l-.6.7v-2.4H61.7V168h3.4v-9.4l.4.4a7,7,0,0,0,2.4,1.5,7.2,7.2,0,0,0,2.9.6,6.9,6.9,0,0,0,4-1.1,8.9,8.9,0,0,0,2.9-3.2,9.7,9.7,0,0,0,1-4.6,9.3,9.3,0,0,0-1-4.5A8.2,8.2,0,0,0,74.8,144.5Zm0,10.7a5.5,5.5,0,0,1-1.9,2.1,5.6,5.6,0,0,1-5.4,0,4.6,4.6,0,0,1-1.8-2.1,5.6,5.6,0,0,1-.7-3,5.4,5.4,0,0,1,.7-2.9,4.6,4.6,0,0,1,1.8-2.1,5,5,0,0,1,2.7-.7,4.5,4.5,0,0,1,2.7.7,4.8,4.8,0,0,1,1.9,2.1,6.5,6.5,0,0,1,.7,2.9A6.6,6.6,0,0,1,74.8,155.2Z"/><path class="cls-1" d="M95.7,145.7a6.4,6.4,0,0,0-2.5-1.8,8.7,8.7,0,0,0-6.6.1,6.7,6.7,0,0,0-2.8,1.9,7.5,7.5,0,0,0-1.8,2.8,9.4,9.4,0,0,0-.7,3.7,9,9,0,0,0,1.2,4.6,7.7,7.7,0,0,0,3.2,3,9.1,9.1,0,0,0,4.7,1.2,7.7,7.7,0,0,0,2.5-.4,9.2,9.2,0,0,0,2.3-.9,10.1,10.1,0,0,0,2-1.4l-1.7-2.4a9,9,0,0,1-2.4,1.6,6.1,6.1,0,0,1-2.4.4,6.8,6.8,0,0,1-3.2-.7,5.3,5.3,0,0,1-2.1-2.1,5.2,5.2,0,0,1-.7-2.2H97.8v-1.5a8.8,8.8,0,0,0-.6-3.3A6.3,6.3,0,0,0,95.7,145.7Zm-8.6,1.4a5.6,5.6,0,0,1,3-.7,4.6,4.6,0,0,1,2,.5,4.2,4.2,0,0,1,1.6,1.3,3.5,3.5,0,0,1,.7,2v.2H84.8a5.8,5.8,0,0,1,.5-1.4A4.1,4.1,0,0,1,87.1,147.1Z"/><path class="cls-1" d="M110.2,143.3a5.3,5.3,0,0,0-2.4.6,7.4,7.4,0,0,0-2,1.6l-.9,1.4v-3.2h-3.4v17.1h3.4v-9.4a4.8,4.8,0,0,1,.4-1.8,4.5,4.5,0,0,1,1-1.4,3.4,3.4,0,0,1,1.4-.9,3.3,3.3,0,0,1,1.7-.4h.9l.9.3.8-3.7-.8-.2Z"/><path class="cls-2" d="M121.1,138l-8.9,22.8h3.6l2.2-5.6h9.5l2.2,5.6h3.8L124.7,138Zm-1.8,13.8,1.7-4.6.5-1.4.6-1.8.6-1.8a.4.4,0,0,1,.1-.3h0c.2.6.4,1.3.7,2l.6,1.9a5.3,5.3,0,0,0,.4,1.1l1.8,4.8Z"/><polygon class="cls-3" points="147.6 141.2 147.6 138 136.6 138 136.6 141.2 140.3 141.2 140.3 157.6 136.6 157.6 136.6 160.8 147.6 160.8 147.6 157.6 143.9 157.6 143.9 141.2 147.6 141.2"/><path class="cls-4" d="M76.9,16.6l-10,6L72.4,32a29.2,29.2,0,0,1,11.8-2.3A25.1,25.1,0,0,1,92.4,31a28.1,28.1,0,0,1,7.8,3.8,37.1,37.1,0,0,1,6.6,5.5l9.9-10.9a34.4,34.4,0,0,0-8.2-7.4A45,45,0,0,0,97,16.6a42.3,42.3,0,0,0-12.8-2,60.5,60.5,0,0,0-8.1.7l.4.6Z"/><path class="cls-1" d="M106.9,104.3a52.5,52.5,0,0,1-12.1,4.6h-.1l7,11.6,13.1-7.8-5.8-9.7Z"/><path class="cls-5" d="M108.1,101.6l.3-.2h0l.3-.2c.1,0,.1,0,.1-.1a5.7,5.7,0,0,0,1.3-.8h.1a19.8,19.8,0,0,0,3.7-3.3l-7.6-12.2a35.4,35.4,0,0,1-4.7,3.8l-.4.2h-.3l-.2.2h-.1a.1.1,0,0,1-.1.1,30.5,30.5,0,0,1-7.8,3.5,33.9,33.9,0,0,1-7.1,1.1H82.2a34.7,34.7,0,0,1-10.9-2.3,26.3,26.3,0,0,1-10-6.5A28.6,28.6,0,0,1,54.9,75a35.4,35.4,0,0,1-2.3-13c0-3,1.3-8.6,1.6-10L47.5,40.5l-8.1,5.3a35.8,35.8,0,0,0-1.8,6.4,50.7,50.7,0,0,0-.9,9.7,53.4,53.4,0,0,0,3.3,19,43.7,43.7,0,0,0,9.3,14.9,39.9,39.9,0,0,0,14.2,9.7,46,46,0,0,0,18.1,3.4,49.2,49.2,0,0,0,10-1h.6l.8-.2h1.4a50.8,50.8,0,0,0,11.7-4.5Z"/><path class="cls-1" d="M51.1,36.3,53.2,35,71.6,65.7,69.5,67,84.6,92.2A27.4,27.4,0,0,0,92.2,91a25.9,25.9,0,0,0,7.4-3.2h.1L82.4,58.8l-2.5,1.5L61.1,29.1l2.5-1.5L55,13.1l-6.1-10L35.8,10.9l4.6,7.6Z"/><polygon class="cls-1" points="77.8 40.2 79.2 39.3 76.6 35 75.2 35.9 75.3 36.1 77.8 40.2 77.8 40.2"/><rect class="cls-1" x="74.9" y="37.2" width="1.1" height="3.24" transform="translate(-9.2 44.3) rotate(-30.9)"/><path class="cls-1" d="M64.9,26.8l1.8-1.1-2.2-3.8,9.7-5.8a6.5,6.5,0,0,0-3.7-2.6,6.1,6.1,0,0,0-4.8.7l-6.2,3.7Z"/><polygon class="cls-1" points="51.4 36.9 51.1 37.1 51.1 37.1 50.8 37.3 48.5 38.6 48.6 38.7 66.2 68.1 68.5 66.7 68.8 66.5 69.1 66.3 70.6 65.5 52.9 36 51.4 36.9"/><polygon class="cls-1" points="66.6 26.8 66.5 26.7 65 27.6 64.7 27.8 64.6 27.8 64.3 28 64 28.2 62.1 29.3 80.1 59.3 82 58.2 82.3 58 82.7 57.8 84.5 56.7 66.8 27.2 66.6 26.8"/><path class="cls-1" d="M61.3,8.4A6.4,6.4,0,0,0,63.7,0L54,5.8,51.4,1.6,49.6,2.7l5.6,9.4Z"/><path class="cls-1" d="M47.5,38.4,50,36.9l-4.3-7.2L21.9,44a9.3,9.3,0,0,0,5.2,3.7,9.2,9.2,0,0,0,6.7-1l13.7-8.3Z"/><path class="cls-1" d="M35.2,11.3,18.9,21.1a8.8,8.8,0,0,0-4,5.4,9.2,9.2,0,0,0,.8,6.3L39.5,18.5Z"/><path class="cls-1" d="M0,176.8v-5.5H2.2l1,.2a1.8,1.8,0,0,1,.9.6,2.2,2.2,0,0,1,.5.8,4.3,4.3,0,0,1,.2,1.2,4.3,4.3,0,0,1-.2,1.1,4.1,4.1,0,0,1-.5.9,2.6,2.6,0,0,1-.9.5,1.6,1.6,0,0,1-1,.2Zm.9-.7h2a1,1,0,0,0,.5-.4,2.1,2.1,0,0,0,.4-.6c0-.3.1-.5.1-.8s-.1-.6-.1-.8a1.6,1.6,0,0,0-.4-.7.9.9,0,0,0-.5-.3l-.8-.2H.9Z"/><path class="cls-1" d="M7.7,176.8v-5.5h3.4v.8H8.5V176h2.6v.8Zm.3-2.4v-.8h2.7v.8Z"/><path class="cls-1" d="M14.2,176.8v-5.5h.9V176h2.6v.8Z"/><path class="cls-1" d="M20.5,176.8V176h.9v-3.9h-.9v-.8h2.6v.8h-.8V176h.8v.8Z"/><path class="cls-1" d="M27.9,176.8l-2.3-5.5h1l1.3,3.4.2.4c.1.1.1.2.1.4a.4.4,0,0,1,.1.3v.2h-.2a.8.8,0,0,0,.1-.4l.2-.5.2-.5,1.2-3.4h1l-2.2,5.5Z"/><path class="cls-1" d="M33.6,176.8v-5.5h3.5v.8H34.5V176h2.6v.8Zm.4-2.4v-.8h2.7v.8Z"/><path class="cls-1" d="M40.2,176.8v-5.5h2.4l.8.2a2.3,2.3,0,0,1,.7.7,2,2,0,0,1,.2.9,2.4,2.4,0,0,1-.2.8,1.3,1.3,0,0,1-.7.6,1.1,1.1,0,0,1-.8.2H41.1v2.1Zm.9-2.9h2l.2-.3a.7.7,0,0,0,.1-.5.6.6,0,0,0-.1-.4l-.3-.4H41.1Zm2.4,2.9-1.4-2.5.9-.2,1.5,2.7Z"/><path class="cls-1" d="M47.2,176.8V176h.9v-3.9h-.9v-.8h2.7v.8H49V176h.9v.8Z"/><path class="cls-1" d="M53,176.8v-5.5h.7l3.4,4.5H57v-1.5a1.3,1.3,0,0,1-.1-.6v-2.5h.9v5.5h-.8l-3.3-4.3h.1v.8a4.3,4.3,0,0,0,.1.5v.7h0v2.3Z"/><path class="cls-1" d="M63.4,176.9l-1.1-.2-.9-.6a2.4,2.4,0,0,1-.6-.9,2.2,2.2,0,0,1-.2-1.1,2,2,0,0,1,.2-1.1,1.5,1.5,0,0,1,.6-.9l.9-.6a2.3,2.3,0,0,1,1.1-.3l.9.2.7.3.5.5-.5.6-.5-.4-.5-.2H62.6l-.6.4a1.6,1.6,0,0,0-.4.7,1.9,1.9,0,0,0-.2.8,1.9,1.9,0,0,0,.2.7,4.3,4.3,0,0,0,.4.7l.7.4.8.2H64l.5-.3.4-.4a.6.6,0,0,0,.1-.4v-.2H63.4V174h2.5v.2h0v.2a3.6,3.6,0,0,1-.2,1,1.8,1.8,0,0,1-.5.7l-.8.5Z"/><path class="cls-1" d="M72.7,176.8v-5.5H75l.8.2.6.6a2.1,2.1,0,0,1,0,1.8l-.6.6-.8.2H73.6v2.1Zm.9-2.9h1.7c.2-.1.2-.2.3-.4s.1-.2.1-.4,0-.3-.1-.4-.1-.3-.3-.4H73.6Z"/><path class="cls-1" d="M79.5,176.8v-5.5h2.3l.9.2a1.3,1.3,0,0,1,.6.7,1.2,1.2,0,0,1,.3.9,1.3,1.3,0,0,1-.3.8.9.9,0,0,1-.6.6,1.5,1.5,0,0,1-.9.2H80.3v2.1Zm.8-2.9h2l.3-.3a.7.7,0,0,0,.1-.5.6.6,0,0,0-.1-.4l-.4-.4H80.3Zm2.4,2.9-1.4-2.5.9-.2,1.6,2.7Z"/><path class="cls-1" d="M86.7,176.8v-5.5h3.5v.8H87.5V176h2.7v.8Zm.4-2.4v-.8h2.6v.8Z"/><path class="cls-1" d="M95.5,176.9l-1-.2a1.8,1.8,0,0,1-.9-.6,1.9,1.9,0,0,1-.5-.9,3.1,3.1,0,0,1,0-2.2,1.5,1.5,0,0,1,.6-.9,1.6,1.6,0,0,1,.8-.6,2.3,2.3,0,0,1,1.1-.3l.8.2.7.3.5.5-.6.6c-.1-.2-.3-.3-.4-.4l-.5-.2H94.9l-.6.5a.9.9,0,0,0-.4.6,1.9,1.9,0,0,0-.1.8,2.2,2.2,0,0,0,.1.8,2.1,2.1,0,0,0,.4.6l.6.4h1.3l.5-.2.4-.3.4.6a1,1,0,0,1-.5.4c-.2.2-.4.2-.7.3Z"/><path class="cls-1" d="M100.2,176.8V176h.9v-3.9h-.9v-.8h2.6v.8h-.9V176h.9v.8Z"/><path class="cls-1" d="M107.6,176.9h-.8l-.7-.4-.6-.6.6-.6c.3.3.5.6.8.7a1.1,1.1,0,0,0,.8.2h.5l.4-.2.2-.4a.4.4,0,0,0-.1-.3v-.2l-.3-.2H108l-.5-.2-.7-.2-.6-.3-.3-.5a1.3,1.3,0,0,1-.1-.6c0-.3.1-.5.1-.7l.5-.4a.9.9,0,0,1,.6-.4h1.5l.6.4.5.5-.6.6-.4-.5-.4-.2h-1.1l-.3.2a.8.8,0,0,0-.1.4v.3l.2.3.4.2h.5l.8.3.5.3a1,1,0,0,1,.4.5.7.7,0,0,1,.1.5,2.9,2.9,0,0,1-.2.9,1.3,1.3,0,0,1-.7.6Z"/><path class="cls-1" d="M112.4,176.8V176h.9v-3.9h-.9v-.8H115v.8h-.9V176h.9v.8Z"/><path class="cls-1" d="M120.3,176.9l-1.1-.2a4.7,4.7,0,0,1-.9-.6,4.1,4.1,0,0,1-.5-.9,2.2,2.2,0,0,1-.2-1.1,2.3,2.3,0,0,1,.2-1.2,4.1,4.1,0,0,1,.5-.9l.9-.6,1.1-.2,1.1.2.8.6a2.4,2.4,0,0,1,.6.9,5,5,0,0,1,.2,1.2,4.3,4.3,0,0,1-.2,1.1,2.4,2.4,0,0,1-.6.9l-.8.6Zm0-.8.7-.2a1.3,1.3,0,0,0,.6-.4,2.1,2.1,0,0,0,.4-.6,2.2,2.2,0,0,0,.1-.8,1.9,1.9,0,0,0-.1-.8,1.6,1.6,0,0,0-.4-.7l-.6-.4-.7-.2-.7.2a.9.9,0,0,0-.6.4,1.6,1.6,0,0,0-.4.7,1.9,1.9,0,0,0-.2.8,2.4,2.4,0,0,0,.2.8,2.1,2.1,0,0,0,.4.6.9.9,0,0,0,.6.4Z"/><path class="cls-1" d="M125.9,176.8v-5.5h.8l3.3,4.5h-.1v-.4a1.1,1.1,0,0,1-.1-.5v-3.7h.8v5.5h-.8l-3.3-4.3h.1a2.2,2.2,0,0,0,.1.8v1.2h0v2.3Z"/><path class="cls-1" d="M137.3,176.8l2.1-5.5h.9l2.1,5.5h-.9l-1.3-3.3v-.3a1.1,1.1,0,0,0-.1-.5l-.2-.4c0-.2,0-.3-.1-.3h.2a.4.4,0,0,1-.1.3c0,.2-.1.3-.1.5l-.2.4c0,.1-.1.2-.1.3l-1.3,3.3Zm.9-1.3.3-.9h2.6l.3.9Z"/><path class="cls-1" d="M144.9,176.8V176h.9v-3.9h-.9v-.8h2.7v.8h-.9V176h.9v.8Z"/></g></g></svg>